<?xml version='1.0' encoding='utf-8'?>
<svg xmlns="http://www.w3.org/2000/svg" xmlns:xlink="http://www.w3.org/1999/xlink" width="210mm" height="297mm" clip-rule="evenodd" fill-rule="evenodd" image-rendering="optimizeQuality" shape-rendering="geometricPrecision" text-rendering="geometricPrecision" version="1.0" viewBox="0 0 210000 297000">
 <defs>
  <style type="text/css">
    .str0 {stroke:#E7791A;stroke-width:4000}
    .str3 {stroke:black;stroke-width:1083.1}
    .str1 {stroke:#FD7D00;stroke-width:5000}
    .str2 {stroke:black;stroke-width:2166.1}
    .fil0 {fill:none}
    .fil1 {fill:#FD7D00}
    .fil2 {fill:#FFF212}
    .fil7 {fill:url(#a)}
    .fil11 {fill:url(#m)}
    .fil9 {fill:url(#n)}
    .fil10 {fill:url(#o)}
    .fil8 {fill:url(#p)}
    .fil6 {fill:url(#q)}
    .fil12 {fill:url(#k)}
    .fil5 {fill:url(#r)}
    .fil3 {fill:url(#l)}
    .fil4 {fill:url(#s)}
  </style>
  <linearGradient id="a" x1="1.0917e5" x2="1.3339e5" y1="1.3966e5" y2="1.3966e5" gradientUnits="userSpaceOnUse">
   <stop stop-color="#121212" offset="0"/>
   <stop stop-color="#fff" offset="1"/>
  </linearGradient>
  <linearGradient id="m" x1="30404" x2="1.796e5" y1="1.5242e5" y2="1.5242e5" gradientUnits="userSpaceOnUse">
   <stop stop-color="#ED3237" offset="0"/>
   <stop stop-color="#240000" offset="1"/>
  </linearGradient>
  <linearGradient id="n" x1="1.1615e5" x2="1.2733e5" y1="1.3243e5" y2="1.3243e5" gradientUnits="userSpaceOnUse" xlink:href="#a">
  </linearGradient>
  <linearGradient id="o" x1="1.1853e5" x2="1.2918e5" y1="1.4177e5" y2="1.4177e5" gradientUnits="userSpaceOnUse" xlink:href="#a">
  </linearGradient>
  <linearGradient id="p" x1="1.0927e5" x2="1.1236e5" y1="1.3823e5" y2="1.3823e5" gradientUnits="userSpaceOnUse" xlink:href="#a">
  </linearGradient>
  <linearGradient id="q" x1="58953" x2="1.3841e5" y1="1.4296e5" y2="1.4296e5" gradientUnits="userSpaceOnUse">
   <stop stop-color="#121212" offset="0"/>
   <stop offset="1"/>
  </linearGradient>
  <linearGradient id="k" x1="30615" x2="1.7813e5" y1="1.5938e5" y2="1.5938e5" gradientUnits="userSpaceOnUse">
   <stop stop-color="#ED3237" offset="0"/>
   <stop stop-color="#5E2D2C" offset="1"/>
  </linearGradient>
  <linearGradient id="r" x1="59919" x2="1.5555e5" y1="93028" y2="93028" gradientUnits="userSpaceOnUse" xlink:href="#k">
  </linearGradient>
  <radialGradient id="l" cx="72406" cy="2.0002e5" r="22113" gradientTransform="matrix(2.0795 0 0 1.9132 -78163 -1.8265e5)" gradientUnits="userSpaceOnUse">
   <stop stop-color="#FEFEFE" offset="0"/>
   <stop stop-color="#FFF200" offset="1"/>
  </radialGradient>
  <radialGradient id="s" cx="1.2895e5" cy="2.0002e5" r="22113" gradientTransform="matrix(-2.0795 0 0 1.9132 3.971e5 -1.8265e5)" gradientUnits="userSpaceOnUse" xlink:href="#l">
  </radialGradient>
 </defs>
  <rect class="fil0" x="858" y="-390" width="2.0743e5" height="2.9633e5"/>
  <path class="fil1" d="m1.3102e5 1.6752e5c20097-218 37285 7805 39442 40203 3146 47244-29815 52510-67210 54978-14 2-29 3-44 3-9 0-18-1-27-2-36554-2154-70351-7887-67202-54978 2167-32429 19370-40372 39492-40154 992-10 1992 4 3e3 38 1722-75 3477-44 5254 73 4869-491 10138 642 15290 2239 5863 1817 2402 1904 8416-3 5159-1635 10439-2783 15316-2285 1776-118 3530-150 5250-73 1015-36 2023-49 3023-39z"/>
  <path class="fil0 str0" d="m1.28e5 1.6756e5c19786-691 36995 6847 39102 40164 2989 47244-28324 52511-63850 54978-7 1-13 1-20 2 5-1 11-1 16-2 29917-2467 56285-7734 53769-54978-1635-30679-14052-39499-29017-40164zm-24785 95145zh-1 1zm-1 0zh-1 1zm-5 0c-8 0-16-1-24-2-34727-2154-66834-7886-63842-54979 2118-33341 19333-40796 39139-40114-14983 658-27411 9408-29053 40114-2518 47092 24519 52825 53762 54979 6 1 12 2 18 2z"/>
  <path class="fil0 str0" d="m1.2622e5 1.6752e5c15744-207 29088 8324 30787 40206 2516 47243-23852 52510-53769 54977-7 2-14 2-22 2 5 0 11-1 16-2 22437-2467 42214-7734 40326-54977-1062-26596-8145-36969-17395-39434-3120-831-5266-702 57-772zm-23013 95186h-3 3zm-3 0c-8 0-15-1-23-2-29243-2154-56280-7887-53762-54978 1630-30467 13859-39771 28701-40097 9087-201 3890 61 233 1390-8426 3063-14494 13983-15485 38707-1889 47091 18387 52824 40319 54978h2c5 1 10 2 15 2zm-48-91388h58-58z"/>
  <path class="fil0 str0" d="m1.0743e5 1.6992e5c16581-5256 34406-5478 36135 37805 1887 47244-17889 52510-40327 54978-8 2-17 2-26 2-5 0-11 0-16-2 2 1 5 0 8-2 7480-2344 14094-9725 13465-54606-505-36037-4571-39019-9988-37479-3492 994-3434 894-6965 9-5401-1355-9438 1539-9944 37470-494 35133 3554 47500 8856 52182 1449 1280 2992 1986 4562 2425 81 41-4111-446-5592-656-19652-2785-36451-11270-34724-54321 1737-43285 19545-42945 36139-37802 5863 1817 2402 1904 8417-3z"/>
  <path class="fil2 str1" d="m1.0322e5 2.4518e5c-1829 14-10102 128-10416-659l-4017-10017-5654 7337c-119 155-404-144-604-220-9307-3455-16338-9505-18886-18417-738-2583-3826-9649-1131-8047 2367 1405 7669 4539 10782 6187 464 244 1117 300 1229 626l3519 10184 5674-7274c384-496 1243 520 1856 745 7441 2701 12676 4162 17648 4395 4970-233 10207-1694 17648-4395 613-225 1470-1241 1856-745l5672 7274 3518-10184c113-326 768-382 1230-626 3115-1648 8415-4782 10782-6187 2697-1602-390 5464-1129 8047-2548 8912-9578 14962-18886 18417-202 76-487 375-606 220l-5655-7337-4014 10017c-316 787-8590 673-10416 659z"/>
  <path class="fil3" d="m65956 2.0792e5c3308 2316 7172 3244 10902 2908-1573-658-2678-2210-2678-4021 0-2407 1950-4358 4357-4358 2406 0 4357 1951 4357 4358 0 1034-361 1985-964 2732 2700-1167 5121-3071 6932-5658l-26945-18867c-5210 7441-3402 17696 4039 22906z"/>
  <path class="fil4" d="m1.4048e5 2.0792e5c-3307 2316-7172 3244-10901 2908 1573-658 2677-2210 2677-4021 0-2407-1950-4358-4356-4358-2407 0-4358 1951-4358 4358 0 1034 361 1985 964 2732-2700-1167-5121-3071-6932-5658l26945-18867c5210 7441 3402 17696-4039 22906z"/>
  <path class="fil5 str2" d="m59921 1.5133e5s25720-85487 50076-1.1016e5c10138-10273 22633-6682 26144-4071 10159 7554 13901 18445 19406 27652-16128-3900-10717-11438-28474-9881l10544 96889-77698-423 2-1z"/>
  <path class="fil6" d="m58953 1.5572e5l7733-26033c11505-4142 36264-3915 68571 4256l3150 24950-79450-3173h-4z"/>
  <path class="fil7 str3" d="m1.0918e5 1.4997e5l239-22529 2278-991c7752 132 14065 1322 18940 3568l2757 21670-2757 1190-21458-2907 1-1zm7077-19643l830 13804 9928 1495-785-4536-8039-3699 7129-1412-632-4261c-2810-1279-5620-1528-8430-1391h-1z"/>
  <path class="fil8 str3" d="m1.0943e5 1.2751e5l2456-1048 475 22356-3089 1179 158-22487z"/>
  <path class="fil9 str3" d="m1.1615e5 1.2904e5l37 1292c2337-194 5069-57 8520 1313l578 4262 2042-511-909-4613c-3894-1771-7105-1960-10268-1743z"/>
  <path class="fil10 str3" d="m1.1853e5 1.3742e5l7658 3257 954 5055 2033 392-1373-6967-9272-1737z"/>
  <path class="fil11 str2" d="m58939 1.6439e5c22737 2303 50419-1391 86388 1005 9898 659 22488 757 32259-6697 1743-1330 4605-5156-2969-6359-2109-765-2101 3869-21413 1406-25070-3198-50259-11895-71870-13658-21612-1763-39826-1869-48488 8034-7713 8819 3352 13967 26089 16270l4-1z"/>
  <path class="fil12 str2" d="m57840 1.4388e5c-7088 249-14405 462-21077 3499-2424 1029-4275 3279-5250 6068-1462 3160-1178 7416 1137 9930 4045 4601 9747 6216 15037 7768 17369 4632 35338 3233 53007 2726 15413-576 30857-464 46231 1032 19240-815 26471-4944 31209-16525-12539 4550-14122 7699-37189 3183-18775-4726-36861-13075-55956-15974-8997-1137-18084-1832-27149-1707z"/>
  <path class="fil0 str2" d="m1.2721e5 55338c-906-2509-1975-5051-991-6411 1284-1773 4372-2496 2961 2179"/>
</svg>