<?xml version="1.0" encoding="UTF-8"?>
<svg enable-background="new" version="1.1" viewBox="0 0 261.52145 346.70436" xmlns="http://www.w3.org/2000/svg">
 <defs>&gt;&gt;&gt;</defs>
 <g transform="translate(-43.316 -704.37)">
  <g transform="translate(1129.7,478.12)">
   <g transform="matrix(-2.5243,0,0,2.5243,473.79,-169.98)">
    <path d="m529.84 223c-6.4431-12.744-5.4888-25.488-0.58819-38.232 9.8526-15.695 22.66-16.249 34.556-21.469 9.2107-0.50374 18.086-2.0802 31.321 10.293l3.088 6.029 1.9116 1.6175 0.73523-6.176 5.8819 1.4705 0.2941 7.2053 2.6468 7.9406 2.4998 7.0583 3.6762 2.9409 1.6175 8.2347-3.3821 0.44115-1.6175 52.937-3.5291 9.264c0.45931 3.3112-0.27582 9.7947-1.4705 17.499-4.1032 0.81379-7.8187 1.2089-11.051 2.2099-9.3521 2.8962-15.596 0.88093-21.744-0.73961-4.0497-1.0675-8.8817-1.1985-11.613-2.3526l-3.6762-25.586 0.73524-6.323-1.0293-0.14704-4.5585-6.029-5.2937-0.14704-1.3234 1.7646-4.8526-0.88229-1.1764-2.6468-1.1764 1.9116c-1.9772 0.55829-3.4111-0.71688-3.8232-5.4408l0.44113-4.0438c-1.0123-4.7749-3.9556-3.7692-5.9554-5.5878l-5.2202 0.80876-7.4994-5.1467 3.5292-7.0583 6.9112-1.9116z" enable-background="new" fill="#89a02b" stroke="#22270b" stroke-opacity=".73725" stroke-width="1.1646"/>
    <path d="m541.86 172.69c-2.2466 1.7159-3.879 4.0593-5.4722 6.3585-1.8876 2.6532-3.7855 5.2999-5.613 7.9948-0.53597 0.68996-0.6811 1.5827-0.85012 2.4196-0.31811 2.0167-0.28992 4.066-0.30147 6.1015 0.064 4.7076 0.47169 9.4 0.72678 14.099 0.22671 3.8896 0.48924 7.7769 0.73785 11.665-0.18651 1.5032-1.353 2.6159-1.765 4.0396-0.24164 0.56344-0.49241 1.136-0.58229 1.7468 0.24853 0.77528 1.1709 0.92676 1.8742 1.0008 1.8508 0.26575 3.8444 0.46073 5.3679 1.6559 1.3216 1.0493 2.68 2.2276 3.2544 3.8676 0.59088 1.6548 0.2424 3.4487-0.23382 5.0849-0.13201 0.49502-0.10609 1.2322 0.4731 1.4193 0.66686 0.18434 1.273-0.52914 1.947-0.25475 0.65747 0.41696 0.63671 1.3049 0.65506 1.9961 0.0359 1.4455-0.1848 3.0369 0.63688 4.318 0.90503 1.1803 2.3335 1.777 3.6725 2.3234 4.0844 1.6842 8.4122 2.696 12.486 4.4092 2.3113 1.0764 4.4394 2.6291 5.9598 4.6953 0.9936 1.3836 1.7512 2.9531 2.1704 4.6053 0.18627 0.80426 0.35849 1.6627 0.0344 2.4582-0.55649 1.548-1.7875 2.737-1.9357 4.04-0.1791 1.5079-1.0361 3.69-1.1516 4.811-0.11469 1.3486-0.0125 2.8447 0.21123 3.9697 0.27022 1.4942 0.58889 2.8655 0.85076 4.3809 0.33446 1.8166 2.9155 3.6977 5.407 5.3817 1.0073 0.62549 2.3118 1.2189 3.8871 1.2216 1.7779 0.0337 3.5125-0.23122 5.2814-0.2795 2.1678-0.1207 4.375-0.34558 6.5429-0.11907 1.736 0.20227 3.3321 0.65151 4.9641 1.0253 2.1682 0.50821 4.5826 0.78403 6.9236 0.56329 1.2107-0.1312 2.4088-0.39875 3.2781-0.90603 0.83428-0.40427 0.90159-1.1469 0.40224-1.6704-0.53281-0.55264-1.2287-1.0585-1.6344-1.65-0.73121-0.94567-1.054-1.9713-1.365-2.9816-0.27015-0.99715-0.53302-1.9948-0.77859-2.9938-0.11981-0.27566-0.0584-1.0867-0.84686-0.69723-0.52766 0.34599-0.19045 0.80367-0.14079 1.2041 0.18683 1.26 0.41226 2.5179 0.6661 3.7743 0.13191 0.86014 0.39734 1.7235 0.27814 2.5883 0.043 0.34874-0.5855 0.59382-1.1626 0.52254-1.0085-0.0454-1.7902-0.45446-2.4664-0.83987-0.78301-0.11123-0.68824 0.50035-0.3265 0.71585 0.56431 0.64499 1.4346 1.1966 2.516 1.582 0.75288 0.28835 1.6256 0.45278 2.4925 0.58804 0.63554 0.28299-0.30349 0.5937-0.81661 0.58385-1.8814 0.31851-3.8878 0.0863-5.706-0.25194-1.64-0.3492-3.1503-0.85566-4.6994-1.3102-1.1251-0.33499-2.2654-0.67981-3.5375-0.79686-1.8055-0.18173-3.6654-0.22464-5.4079-0.57465-1.7742-0.30574-3.4632-0.76901-4.9323-1.4096-1.7752-0.76995-3.3408-1.6812-4.8802-2.5944-2.9025-1.779-3.9994-3.6621-4.4626-5.3938-0.12033-0.47881-0.25085-0.94533-0.31883-1.5583-0.13202-0.97855 0.54536-2.2282 0.66488-3.7852 0.10808-1.3351 0.265-2.4708 0.40969-3.6422 0.18355-1.4367 2.4179-2.9061 3.0812-4.6698 0.64675-1.9821 0.0938-4.09-0.58643-5.9844-0.83091-2.2611-1.977-4.3884-2.9774-6.5765-0.71323-1.4204-1.1844-2.9528-1.9473-4.3476-0.49597-1.0023-1.3333-1.8305-2.3644-2.2744-2.1662-1.0086-4.58-1.2263-6.9021-1.6672-2.0217-0.3554-4.0463-0.70091-6.0468-1.164-0.93017-0.47029-1.2326-1.6596-1.0372-2.6203 0.17405-2.6632 0.53166-5.4326-0.37119-8.01-0.67937-2.1312-1.9763-3.9832-3.2457-5.7982-1.7766-2.5244-3.717-5.0164-6.2688-6.8044-0.99603-0.75093-1.8475-1.8145-2.0031-3.0873-0.49725-2.3962-0.48259-4.8762-0.20059-7.299 0.30732-2.5376 0.96501-5.0192 1.8129-7.427 1.0788-3.0698 2.384-6.0536 3.6529-9.0481 0.12521-0.52308 0.61526-1.0514 0.30933-1.6013-0.32859-0.62627-1.0536-0.71912-1.6827-0.68396-0.69151-0.046-1.5893-0.18314-1.8786-0.90986-0.45321-1.26 0.0667-2.5928 0.52841-3.7718 1.3638-3.4859 3.183-6.7676 4.7252-10.174 0.26958-0.43543 0.72991-1.2992 0.11336-1.6006l-5e-3 -5.8e-4z" color="#000000" enable-background="accumulate" fill="#677821"/>
    <path d="m527.61 226.89c-0.13354 0.17939-1.2059 0.65909-1.1388 0.91677 5.0684 2.5595-0.2283 2.9003 1.8019 4.5565 0.55828 0.45527 4.8494-2.6675 3.7452 2.7379 0.84853 0.65288 1.8198 0.70092 2.7526 1.4016 0.44209 0.33222 0.96698-1.1943 1.425-0.85238 1.2481 0.57457 0.0343-0.86004 1.3478-0.50879 1.767 1.9739 4.0168 8.2617 6.4575 9.6649-0.64075-9.3742-4.0363-8.1749-9.1931-16.086-2.8633-1.3357-4.8416-2.3897-7.1982-1.8304z" enable-background="new" fill="#505d1a" fill-rule="evenodd"/>
    <path d="m587.37 170.01c0.31753 0.49188 0.74547 0.95511 1.0878 1.4506 2.454 3.2922 5.0976 6.464 7.1957 10.003 0.58105 1.1512 0.98969 2.5368 0.50527 3.7946-0.34527 0.56036-1.0324 0.8346-1.6741 0.78243-0.80138 0.21125-0.84245 1.2472-0.60047 1.8924 0.70259 2.9708 1.1572 6.1287 2.9369 8.6934 1.4728 2.2298 3.8181 3.6163 6.0011 5.0516 1.5405 1.1137 2.9248 2.5664 3.5359 4.402 0.91422 2.3928 1.0916 4.9734 1.4606 7.4855 0.26182 2.9851 0.19164 6.1146-1.0635 8.89-0.45086 1.1845-1.0699 2.3137-1.4083 3.5352-0.54854 2.7634 0.22896 5.5762-0.16992 8.3516-0.57292 6.8373-0.90197 13.692-1.1416 20.548-0.24518 5.077-0.3762 10.175-1.1152 15.211-0.12243 0.597-0.35059 1.4179-1.066 1.498-0.97024-0.014-1.4137-1.0302-1.7971-1.7679-1.4259-2.7462-1.7268-5.8774-2.4089-8.8539-0.76347-3.8363-1.4779-7.6982-2.7268-11.414 0.1801-0.49545-0.60262-1.1006-0.94619-0.61868-0.35218 1.4237 0.14772 2.8836 0.0811 4.3251 0.15221 3.7396 0.25401 7.5078-0.23426 11.227-0.3531 1.5452-1.5859 2.635-2.7036 3.6633-0.43116 0.4164-0.0707 1.3084 0.56408 1.1464 0.82084 0.0193 1.6505 0.13967 2.3651 0.56885 2.0109 0.99879 3.6173 2.622 5.5503 3.7436 0.6879 0.26711 1.5499-0.0857 2.1163 0.51114 1.3274 1.031 3.0509 1.435 4.7045 1.4904 0.73309 0.0558 1.4754-0.11681 2.1963-0.0755 0.5289 0.14836 1.0151-0.75798 0.3903-0.96166-0.64517-0.45837-0.31048-1.3371-0.38211-1.9989-0.0273-12.428 0.19741-24.856 0.10132-37.284-0.0514-1.2665-0.29311-2.5136-0.62901-3.7332-0.0234-1.3573 0.72508-2.5601 1.0699-3.8406 0.81189-2.4507 1.889-4.8944 1.8774-7.5234 0.0667-2.5147-0.49747-4.9875-1.0394-7.428-0.3816-1.9348-0.78849-3.8672-1.3481-5.7594-0.47963-1.6282-1.179-3.2378-2.3977-4.4534-1.386-1.5734-3.2649-2.591-4.7128-4.0942-0.98365-0.9828-1.6705-2.2383-1.947-3.6029-0.51561-2.1527-0.55922-4.3846-0.63686-6.587-0.0228-2.4149 0.10864-4.9523-0.90981-7.2057-1.0119-2.2301-2.8414-3.9234-4.4639-5.7059-1.831-1.9247-3.801-3.7345-5.9486-5.2958-0.0675-0.0228-0.21645-0.13452-0.26871-0.0616z" color="#000000" enable-background="accumulate" fill="#677821"/>
    <path d="m602.61 182.21c0.15025-0.0494 0.64343-0.88866 0.8261-0.70388 1.2516 6.1858 2.1819 1.108 3.1515 3.876 0.26651 0.76108-2.6001 3.5659 1.5532 4.9602 0.37607 1.1387 0.28749 2.1207 0.68829 3.3647 0.19004 0.58966-1.0101 0.40647-0.81489 1.0164 0.26687 1.4977-0.64274-0.36162-0.55006 1.0979 1.2392 2.6538 5.6184 7.7685 6.3478 10.826-6.8759-4.9436-5.5515-7.7478-10.764-16.482-0.62522-3.4438-1.1545-5.8836-0.43802-7.9554z" enable-background="new" fill="#505d1a" fill-rule="evenodd"/>
    <path d="m529.8 230.81c2.1042-0.65057 5.016 1.4478 7.5344 2.2071l4.002 5.4727" enable-background="new" fill="none" stroke="#000" stroke-width=".5312"/>
    <path d="m535.25 235.16c-0.48733-2.0908 0.59024-1.9737 1.2354-2.4667l5.0182 5.8293" enable-background="new" fill="none" stroke="#000" stroke-width=".28091"/>
    <path d="m538.08 237.85c-0.48733-2.0907-0.37382-2.1004 0.27128-2.5935l3.1568 3.2747" enable-background="new" fill="none" stroke="#000" stroke-width=".28091"/>
    <path d="m605.24 186.17c-0.7519 1.7805 0.43306 5.6228 0.67458 8.4607l3.5502 6.4715" enable-background="new" fill="none" stroke="#000" stroke-width=".47284"/>
    <path d="m570.17 229.68c-0.3593 0.0522-1.0077 3.3924-1.341 3.1533-0.20729-7.7179-3.2206-11.625-4.2359-15.104 4.9838-11.217-7.2465-5.6174-9.3357-18.916 13.399 6.5215 9.2474 16.179 17.3 27.284-0.0458 4.2926 0.10121 1.0663-2.3872 3.5829z" enable-background="new" fill="#505d1a" fill-rule="evenodd"/>
    <path d="m564.3 227.3-5.4435 4.7551c0.1259 0.77508-9.0992 10.128-11.912 1.6091 0 0-0.39038 5.5012 0.95138 7.326 1.3417 1.8248 3.0802 1.0637 6.4612-0.98591 3.3811-2.0496 5.4824-4.9757 5.4824-4.9757z" color="#000000" enable-background="accumulate" fill="#677821"/>
    <path d="m590.62 212.65 5.795-0.96309c0.1295 0.70049 10.336 0.0601 10.062-8.8483 0 0 1.952 3.8851 1.4159 6.4191-0.53602 2.5339-2.1612 3.4219-5.4914 4.7127-3.3303 1.291-5.892 0.82707-5.892 0.82707z" color="#000000" enable-background="accumulate" fill="#677821"/>
    <g transform="matrix(.58228 0 0 .58228 443.96 148.42)" enable-background="new">
     <g fill-rule="evenodd">
      <path transform="matrix(5.2877,-2.6624,3.2435,4.3404,-3647.9,-2808.1)" d="m227.53 820.96c0.0209 0.29418 0.58785-0.94676 1.1287-0.71556 0.38275 0.1636 0.88764 0.84437 1.1734 1.0982 0.52721 0.46815 0.2434 0.0735 1.6957 0.31501 0.50917 0.0847 0.1223-0.44793 0.61922-0.31296 0.48857 0.13273 1.2907 0.40997 1.8505 0.0585 0.36743-0.23073 0.74328-0.5282 0.93791-0.83851-0.84941-1.0028-1.8773-0.38404-2.6065-0.36612-0.51899 0.0127-0.88955-0.62946-1.1877-0.10622-0.22734 0.53552-0.4088-0.12228-0.84293-0.0425 0.13535 0.13834-0.76719-0.55148-0.86647-0.58944-0.90443 0.15511-1.4378-0.0148-1.9045 0.49076z" fill="#505d1a" opacity=".58276"/>
      <path transform="matrix(5.2877,-2.6624,3.2435,4.3404,-3647.9,-2808.1)" d="m227.63 820.18c0.0224 0.32857 0.44328-0.013 1.0222 0.24523 0.40967 0.18272 0.95005 0.94309 1.256 1.2266 0.56427 0.52288 0.58863-0.33972 1.2837-1.5388 0.27738-0.47853 0.66215 1.3903 1.194 1.5411 0.52294 0.14824 1.3658-0.6046 1.965-0.99724 0.39328-0.25771 0.60805-0.0587 0.81636-0.40529-0.90914-1.12-1.8062 0.1023-2.5866 0.12232-0.55548 0.0142-0.97717-1.0434-1.2963-0.45895-0.2291 0.41963-0.72433 8e-3 -0.56324-1.1564 0.0307-0.22148-0.82509 0.90404-0.31388 1.4493 0.14487 0.15451-0.82113-0.61596-0.92738-0.65836-0.96803 0.17325-1.2212 0.0271-1.7206 0.59177z" fill="#505d1a"/>
      <path transform="matrix(5.2877,-2.6624,3.2435,4.3404,-3647.9,-2808.1)" d="m234.05 820.13c-0.0123-1.1e-4 -0.0291 2e-3 -0.0449 3e-3 -1.2703 0.28683-1.1824 0.64803-1.5523 1.2198 0.10617 0.0559 0.0794 0.36628 0.28219 0.34334 0.67002-0.0758 1.0794-0.30468 1.2477-0.76986 0.17655-0.0866 0.19871-0.17917 0.31421-0.26157 0.2886-0.30041 0.72354-0.12766 0.63859-0.0817 0.0529-0.42552-0.14528-0.34136-0.14211-0.41108 2e-3 -0.0241-0.70684-0.0422-0.74338-0.0425z"/>
      <path transform="matrix(5.2877,-2.6624,3.2435,4.3404,-3647.9,-2808.1)" d="m228.93 819.87c0.0112-1.2e-4 0.0267 2e-3 0.0413 4e-3 1.1679 0.33028 1.0871 0.74616 1.4272 1.4046-0.0976 0.0644-0.073 0.42177-0.25946 0.39535-0.61601-0.0872-0.99239-0.35083-1.1471-0.88645-0.16232-0.0997-0.1827-0.20631-0.2889-0.30119-0.26533-0.34592-0.66522-0.147-0.58712-0.0941-0.0486-0.48996 0.13357-0.39305 0.13065-0.47335-2e-3 -0.0278 0.6499-0.0485 0.68348-0.0489z"/>
     </g>
    </g>
    <g transform="matrix(.58228 0 0 .58228 443.96 148.42)" enable-background="new">
     <path transform="matrix(5.5455 -2.1173 .2559 2.7703 -1129.4 507.58)" d="m229.36 22.942c0.24859-4.7992 1.6028-6.2516 3.3549-9.5665 1.645 3.093 3.0859 3.5334 4.5625 4.4375-0.70469-1.7423-2.442-4.5647-1.1739-6.2516 1.1822 2.492 2.9386 4.1726 5.238 5.4886-0.42657-0.73742-0.8102-1.3791-0.50157-2.4558 0.54601 0.4577 0.41903 0.15268 1.75 1.5l0.16-1.094c1.3595 3.8516 0.35815 2.3593 0.19117 4.7897 0.51756-0.06613 1.133-1.4027 1.9451-3.7669 6e-3 1.0244 2.8074 3.0963 2.2859 5.2923 0.55489-1.0756 0.0109-0.19466 0.35319-2.1206 0.13483 0.16364-2.2524-2.8124-1.4542-3.1551 0.5581-0.23958 2.1682 2.8114 2.3431 2.3127 0.41439-1.1821-1.1664-3.1384-0.66961-3.3355 0.69872-0.27716 1.2696 0.82883 1.4666 1.4019 0.61315-2.9551-2.575-2.3573-5.1223-6.3429 0.8445 0.48972 1.6612 1.1324 2.3886 2.2661l-0.96561-2.481c-1.083-0.51698-2.1661-1.5214-3.2492-1.5086l-0.96547-0.9437-2.4107 0.94974c-0.18065-0.45994-0.10468-1.6348 0.15661-2.1537-0.6855 0.35561-2.1245 2.6472-2.5744 3.3267-1.7714-2.0281-0.67048-3.3858-2.1412-4.252 1.1244 1.1429 0.0235 2.648 0.76838 4.1084-8.9232-0.48422-7.3888 2.252-10.127 3.5499 1.3246-0.43054 3.0268-1.1547 4.8794-1.9959-2.0146 1.0128-2.664 2.3453-3.5875 3.5218 1.4859-1.1072 2.486-3.0663 4.7492-3.6161-2.4175-0.92066-6.1172 9.0272-5.7876 10.687 0.31561 1.5892 4.5057-7.9728 4.3279-6.0339-0.23487 2.5614-1.3665 6.4266-0.18629 7.4413z" fill="#008000" stroke="#000" stroke-width=".2"/>
     <path transform="matrix(5.5455 -2.1173 .2559 2.7703 -1329.6 -1659.8)" d="m228.97 797.75c-1.0885-3.0549 2.2457 0.68381 3.8802-2.2671 0.88472-5.9419 2.0335 3.8359 4.2872 4.4503-0.80157-1.5965-2.5842-5.2129-0.53253-6.4401 1.1028 2.2184 2.1943 3.8394 4.3391 5.0109-0.39789-0.65646-0.33387-1.0558-0.046-2.0143 0.63431-1.3426 0.48326-1.4278 1.7248-0.22847l-0.21229-1.0193c2.0963 3.4756 0.97515 4.0064 0.8194 6.1699 0.48276-0.0588 0.32229-0.53396 1.0799-2.6385 0.4435 1.3495 0.70399 1.1398 0.2175 3.0946 0.5176-0.95748 0.37256-1.4622 0.69187-3.1767 0.84104 0.9741 1.4928 2.508 1.8617 3.5322-0.28533-3.9454-4.8224-6.854-4.5143-7.5599 0.78775 0.43593 1.5496 1.0081 2.2281 2.0172l-0.85654-1.9876c-1.457 0.20984-2.1582-1.4352-3.075-1.564-0.62566 0.26241-0.79852-0.22984-0.9006-0.84007-0.73692 0.11252-0.74478-0.14398-1.534-0.6586-0.69196 0.69213-1.2343 0.28315-0.99057-0.17875-0.63943 0.31656-0.29518 0.52788-0.91796 0.83594-0.44904-1.5155 1.1312-1.3068-1.6636-2.4545 1.0488 1.0175 0.30539 0.44851 0.80492 1.7251-8.3236-0.43104-6.8923 2.0048-9.4467 3.1601 1.2356-0.38326 2.9328-1.2623 5.6609-2.183-1.8792 0.90162-4.3756 2.9003-5.237 3.9476 1.386-0.98564 3.0498-2.7136 5.1608-3.203-1.711 1.9786-5.8734 3.7705-4.6422 7.4677z" fill="#500" opacity=".6931"/>
    </g>
    <g transform="matrix(.58228 0 0 .58228 346.39 116.5)" enable-background="new">
     <path d="m429.34 107.14c-9.3761 4.0534-29.924 22.231-34.992 24.376-0.081 3.674 16.031 20.071 17.415 23.004 19.88 2.8 41.053 0.24713 17.576-47.38z" fill="#333" fill-rule="evenodd" stroke="#000" stroke-width=".58846"/>
     <path d="m429.05 107.32c-9.2744 4.0291-27.653 21.442-32.667 23.574-0.0817 3.6382 14.673 20.635 16.041 23.538 21.313 0.91481 35.956-1.8452 16.625-47.113z" fill="#4d4d4d" fill-rule="evenodd" stroke="#000" stroke-width=".29117"/>
     <path d="m428.68 108.2c-9.1834 4.752-17.488 13.16-30.593 21.532-0.15409 4.3346 13.411 21.658 14.839 24.473 24.803 3.2622 29.937-17.72 15.755-46.005z" fill="#666" fill-rule="evenodd" stroke="#000" stroke-width=".058929"/>
     <path d="m426.34 112.42c-7.4328 0.21744-18.008 7.9626-26.413 20.841-0.13183 3.2754 11.672 17.22 12.723 19.325 21.756 3.689 31.57-15.971 13.69-40.166z" fill="#fff" fill-rule="evenodd"/>
     <path d="m394.69 139.4c8.69-23.61 25.272-26.914 37.31-31.581" fill="none" stroke="#000" stroke-width="3.0585"/>
     <path transform="matrix(1.262 -.68653 .48925 1.032 110.11 149.38)" d="m202.03 117.78c0 4.4283-1.272 8.0181-2.8411 8.0181s-2.841-3.5898-2.841-8.0181 1.272-8.0181 2.841-8.0181 2.8411 3.5898 2.8411 8.0181z" color="#000000" enable-background="accumulate" fill="#fea" stroke="#b2ad3f" stroke-width=".30951"/>
     <path transform="matrix(.72156 -.39252 .27973 .59004 242.45 142.87)" d="m202.03 117.78c0 4.4283-1.272 8.0181-2.8411 8.0181s-2.841-3.5898-2.841-8.0181 1.272-8.0181 2.841-8.0181 2.8411 3.5898 2.8411 8.0181z" color="#000000" enable-background="accumulate"/>
    </g>
    <path d="m538.84 218.03c5.0582-4.0122 19.667-10.819 22.384-12.998 1.4236 0.74274 1.5906 12.628 2.1833 13.975-6.4038 10.941-15.323 21.412-24.567-0.97728z" enable-background="new" fill="#333" fill-rule="evenodd" stroke="#000" stroke-width=".31"/>
    <path d="m539.02 217.91c1.7644-5.9622 11.14-11.915 20.976-13.228 1.4103 0.73468 2.1246 12.965 2.7117 14.297-7.5254 10.787-13.485 17.541-23.688-1.0689z" enable-background="new" fill="#4d4d4d" fill-rule="evenodd" stroke="#000" stroke-width=".15339"/>
    <path d="m539.49 217.91c5.2507-3.7627 9.7121-10.093 19.654-11.317 1.7016 0.84582 2.4861 11.031 3.0174 12.375-6.8689 11.101-16.164 10.072-22.672-1.0584z" enable-background="new" fill="#666" fill-rule="evenodd" stroke="#000" stroke-width=".031044"/>
    <path d="m541.97 217.59c1.1574-7.4167 15.902-12.157 17.687-9.8704 1.2916 0.63113 1.9064 10.542 2.3103 11.539-5.2085 8.1942-16.036 7.849-19.998-1.6683z" enable-background="new" fill="#fff" fill-rule="evenodd"/>
    <path d="m561.53 204.22c-11.257 1.5722-21.87 7.9174-23.652 13.98" enable-background="new" fill="none" stroke="#000" stroke-width="1.6112"/>
    <path transform="matrix(.52429 -.15703 .13601 .45411 434.08 193.96)" d="m202.03 117.78c0 4.4283-1.272 8.0181-2.8411 8.0181s-2.841-3.5898-2.841-8.0181 1.272-8.0181 2.841-8.0181 2.8411 3.5898 2.8411 8.0181z" color="#000000" enable-background="accumulate" fill="#fea" stroke="#b2ad3f" stroke-width=".45288"/>
    <path transform="matrix(.3378 -.10118 .087632 .29259 476.93 201.86)" d="m202.03 117.78c0 4.4283-1.272 8.0181-2.8411 8.0181s-2.841-3.5898-2.841-8.0181 1.272-8.0181 2.841-8.0181 2.8411 3.5898 2.8411 8.0181z" color="#000000" enable-background="accumulate"/>
    <path d="m604.06 272.65c-0.32604 2.0638-0.91038 7.7845-3.078 7.2638-8.7725-2.1077-17.85 4.4978-30.732 1.2081-0.43984-2.8008 2.6216-7.6252 1.3194-6.94-1.8231 0.95933 0.93334-24.82-0.24238-26.505 7.8831-8.6448 17.978-7.076 28.668-11.132-0.69287 4.9149 2.8933 9.6023 2.6631 12.784-1.9341 11.401-2.7056 17.962 1.4022 23.321z" enable-background="new" fill="#1a1a1a" fill-rule="evenodd" stroke="#000" stroke-width="1.3156"/>
    <g transform="matrix(.58228 0 0 .58228 443.96 148.42)" enable-background="new" fill="#fff" fill-rule="evenodd" stroke="#000">
     <path transform="matrix(3.637 -.78889 -1.4593 -3.3549 585.34 3178.4)" d="m235.26 825.19c0.68013 0.65179 0.71287 0.36819 1.271 1.0573 0.11425 0.18427-0.34231 0.23541-0.53735 0.46261-0.19504 0.22729-0.96963 0.58671-0.96128 0.29803 8e-3 -0.29021-0.0303-0.79497-0.0505-0.98717-0.0382-0.36347-0.0274-0.13118-0.0732-0.50858-0.29333-0.46071 0.19162 0.11011 0.35135-0.32223z" stroke-width=".047054"/>
     <path transform="matrix(3.637 -.78889 -1.4593 -3.3549 585.34 3178.4)" d="m235.23 825.25c-0.25204 0.0684-0.74247-3e-5 -0.69253 0.15437l0.49875 1.5414c0.0492 0.15456 0.29117-0.23898 0.54321-0.30742 0.25206-0.0684 1.0229-0.35132 0.91038-0.48185l-0.72619-0.84245c-0.11243-0.13052-0.28149-0.13248-0.53354-0.064z" stroke-width=".13448"/>
    </g>
    <g transform="matrix(.58228 0 0 .58228 443.96 148.42)" enable-background="new" fill="#fff" fill-rule="evenodd" stroke="#000">
     <path transform="matrix(4.9184 -.53445 .48547 4.4676 -1292 -3400.3)" d="m225.9 825.8c0.30244 0 0.83263-0.28758 0.82076-0.0482l-0.10512 2.1192c-0.0119 0.23949-0.38229 0.0453-0.68471 0.0453-0.30245 0-1.1196-0.23945-1.1714-0.47935-0.0498-0.23061 0.34734-0.73113 0.41263-0.89299 0.12341-0.30595 0.0299-0.12255 0.15106-0.44595 0.0861-0.22979 0.27436-0.29809 0.57681-0.29809z" stroke-width=".050768"/>
     <path transform="matrix(4.9184 -.53445 .48547 4.4676 -1292 -3400.3)" d="m225.93 825.79c0.29327 0 0.80457-0.23841 0.79588-0.0399l-0.0868 1.9826c-9e-3 0.19855-0.38584-0.18908-0.6791-0.18908-0.29328 0-1.2118-0.087-1.1283-0.27744l0.53903-1.2293c0.0835-0.19042 0.26604-0.24701 0.55932-0.24701z" stroke-width=".15773"/>
    </g>
    <g transform="matrix(.58228 0 0 .58228 443.96 148.42)" enable-background="new" fill="#fff" fill-rule="evenodd" stroke="#000">
     <path transform="matrix(5.756 -.62548 .38611 3.5532 -1404.4 -2629.8)" d="m233.48 825.92c0.28471-0.0907 0.68651-0.49141 0.76381-0.2891l0.7893 2.0658c0.0773 0.20238-0.84911-0.11623-1.1338-0.0256-0.28472 0.0907-1.3262 0.25358-1.2353 0.0252 0.0913-0.22963 0.23612-0.72863 0.2675-0.89288 0.0594-0.31061 6e-3 -0.11854 0.0606-0.44403 0.0392-0.23129 0.20353-0.3488 0.48826-0.43944z" stroke-width=".048079"/>
     <path transform="matrix(5.756 -.62548 .38611 3.5532 -1404.4 -2629.8)" d="m233.9 825.38c-0.28294-0.053-0.77624-0.42827-0.76786-0.19116l0.0838 2.3678c8e-3 0.23705 0.37226-0.15457 0.6552-0.10156 0.28295 0.053 1.1691 0.11589 1.0886-0.1252l-0.52005-1.5558c-0.0805-0.24099-0.25668-0.34113-0.53963-0.39414z" stroke-width=".16875"/>
    </g>
    <g transform="matrix(.58228 0 0 .58228 443.96 148.42)" enable-background="new" fill-rule="evenodd" stroke="#000">
     <path transform="matrix(5.0389 -.54755 .45922 4.2261 -1296.7 -3201.8)" d="m232.32 826.47c0.33147-0.0966 0.78075-0.51486 0.88924-0.30801l0.87985 1.6775c0.10852 0.20692-0.94948 0.39961-1.2809 0.49614-0.33148 0.0966-1.1924 0.29361-1.0866 0.0502 0.10634-0.24465-0.0767-0.79973-0.0401-0.97472 0.0691-0.33093 7e-3 -0.1263 0.0705-0.47308 0.0457-0.24642 0.23695-0.37161 0.56844-0.46818z" fill="#fff" stroke-width=".053546"/>
     <path transform="matrix(5.0389 -.54755 .45922 4.2261 -1296.7 -3201.8)" d="m231.81 825.36c0.27913-0.0586 0.68834-0.35747 0.81909-0.11659l1.3527 2.4924c-0.46485 0.11698-2.0248 0.476-2.2354 0.58957l-0.6385-2.7505c0.30319-0.14506 0.30324-0.1562 0.70225-0.21446z" fill="#fea" stroke-width=".17984"/>
    </g>
    <g transform="matrix(.58228 0 0 .58228 443.96 148.42)" enable-background="new" fill="#fff" fill-rule="evenodd" stroke="#000">
     <path transform="matrix(4.9904 -.54228 .47607 4.3811 -1300.3 -3333.8)" d="m235.26 825.19c0.68013 0.65179 0.71287 0.36819 1.271 1.0573 0.11425 0.18427-0.34231 0.23541-0.53735 0.46261-0.19504 0.22729-0.96963 0.58671-0.96128 0.29803 8e-3 -0.29021-0.0303-0.79497-0.0505-0.98717-0.0382-0.36347-0.0274-0.13118-0.0732-0.50858-0.29333-0.46071 0.19162 0.11011 0.35135-0.32223z" stroke-width=".047054"/>
     <path transform="matrix(4.9904 -.54228 .47607 4.3811 -1300.3 -3333.8)" d="m235.23 825.25c-0.25204 0.0684-0.74247-3e-5 -0.69253 0.15437l0.49875 1.5414c0.0492 0.15456 0.29117-0.23898 0.54321-0.30742 0.25206-0.0684 1.0229-0.35132 0.91038-0.48185l-0.72619-0.84245c-0.11243-0.13052-0.28149-0.13248-0.53354-0.064z" stroke-width=".13448"/>
    </g>
    <g transform="matrix(.58228 0 0 .58228 443.96 148.42)" enable-background="new" fill="#fff" fill-rule="evenodd" stroke="#000">
     <path transform="matrix(4.9184 -.53445 .48547 4.4676 -1292.6 -3403.5)" d="m227.6 826.58c0.31748-0.0966 0.76236-0.53634 0.84462-0.30801l0.6353 1.7635c0.0823 0.22842-0.4791 0.17305-0.79657 0.26962-0.31749 0.0966-1.4298 0.41079-1.3593 0.1674 0.0709-0.24465 0.16244-0.77629 0.17363-0.95128 0.0212-0.33093-0.0117-0.1263 2e-3 -0.47308 0.01-0.24642 0.18312-0.37161 0.50062-0.46818z" stroke-width=".053546"/>
     <path transform="matrix(4.9184 -.53445 .48547 4.4676 -1292.6 -3403.5)" d="m227.93 825.52c0.24765-0.0458 0.67431-0.32233 0.71001-0.0789l0.36921 2.5186c-0.41816 0.095-1.8244 0.24748-2.032 0.3502l0.4046-2.5807c0.29331-0.12967 0.20186-0.16902 0.54816-0.20923z" stroke-width=".16349"/>
    </g>
    <g transform="matrix(.58228 0 0 .58228 443.96 148.42)" enable-background="new" fill="#fff" fill-rule="evenodd" stroke="#000">
     <path transform="matrix(5.3682 -.58334 .39948 3.6762 -1324.4 -2739.2)" d="m229.64 826.91c0.33147-0.0966 0.79925-0.52355 0.88924-0.30801l0.91891 2.201c0.09 0.21562-0.98854-0.12383-1.32-0.0273-0.33148 0.0966-1.544 0.27017-1.4382 0.0268 0.10634-0.24465 0.27489-0.77629 0.31143-0.95128 0.0691-0.33093 7e-3 -0.1263 0.0705-0.47308 0.0457-0.24642 0.23695-0.37161 0.56844-0.46818z" stroke-width=".053546"/>
     <path transform="matrix(5.3682 -.58334 .39948 3.6762 -1324.4 -2739.2)" d="m230 825.42c0.30604 0 0.8333-0.23924 0.87741 0.0636l0.45627 3.1327c-0.51676 0.0213-2.2546-0.10907-2.5111-0.0312l0.5-3.0345c0.36247-0.0913 0.24946-0.15944 0.67742-0.13054z" stroke-width=".2"/>
    </g>
    <path d="m600.91 238.77c-0.23284 0.25014-2.3856-0.0413-4.0322 0.31519-1.3612 0.29476-3.2843 0.48837-5.2361 1.0411-1.0401 0.29459-2.0627 0.92662-3.0696 1.2086-0.85688 0.23971-1.6718-0.224-2.4122 0.13805-1.2643 0.61816-3.3277 0.93667-3.7113 1.0575-0.52669 0.16591-1.5476 0.97457-2.1066 0.78322-0.79112-0.2709-2.3293 1.079-2.9695 1.6768-0.66688 0.62275-0.94962 0.0439-1.8544 0.47847-1.2941 0.62099-2.6679 2.1449-4.1024 2.6413-0.25338-0.15843 0.45745-0.66577-0.25087-0.55405-1.6735 0.26357-0.22034-0.66834-0.57799-0.69288 6.924-4.1555 15.111-6.8522 24.283-8.9599 0.65378-0.1498 3.2377-1.0216 3.893-1.035 0.54643 0.091 1.6381 0.68553 1.0542 1.0995 0.42122 0.23372 1.208 0.24971 1.0934 0.80257z" enable-background="new" fill="#ff5a5a" fill-rule="evenodd"/>
    <g transform="matrix(.58228 0 0 .58228 443.96 148.42)" enable-background="new" fill="#fff" fill-rule="evenodd" stroke="#000">
     <path transform="matrix(2.4365 -.44569 -.9776 -1.7428 474.87 1765.8)" d="m229.64 826.91c0.33147-0.0966 0.79925-0.52355 0.88924-0.30801l0.91891 2.201c0.09 0.21562-0.98854-0.12383-1.32-0.0273-0.33148 0.0966-1.544 0.27017-1.4382 0.0268 0.10634-0.24465 0.27489-0.77629 0.31143-0.95128 0.0691-0.33093 7e-3 -0.1263 0.0705-0.47308 0.0457-0.24642 0.23695-0.37161 0.56844-0.46818z" stroke-width=".053546"/>
     <path transform="matrix(2.4365 -.44569 -.9776 -1.7428 474.87 1765.8)" d="m230 825.42c0.30604 0 0.8333-0.23924 0.87741 0.0636l0.45627 3.1327c-0.51676 0.0213-2.2546-0.10907-2.5111-0.0312l0.5-3.0345c0.36247-0.0913 0.24946-0.15944 0.67742-0.13054z" stroke-width=".2"/>
    </g>
    <g transform="matrix(.58228 0 0 .58228 443.96 148.42)" enable-background="new" fill="#fff" fill-rule="evenodd" stroke="#000">
     <path transform="matrix(3.3587 .1924 .34078 -2.926 -803.27 2593.9)" d="m233.48 825.92c0.28471-0.0907 0.68651-0.49141 0.76381-0.2891l0.7893 2.0658c0.0773 0.20238-0.84911-0.11623-1.1338-0.0256-0.28472 0.0907-1.3262 0.25358-1.2353 0.0252 0.0913-0.22963 0.23612-0.72863 0.2675-0.89288 0.0594-0.31061 6e-3 -0.11854 0.0606-0.44403 0.0392-0.23129 0.20353-0.3488 0.48826-0.43944z" stroke-width=".048079"/>
     <path transform="matrix(3.3587 .1924 .34078 -2.926 -803.27 2593.9)" d="m233.9 825.38c-0.28294-0.053-0.77624-0.42827-0.76786-0.19116l0.0838 2.3678c8e-3 0.23705 0.37226-0.15457 0.6552-0.10156 0.28295 0.053 1.1691 0.11589 1.0886-0.1252l-0.52005-1.5558c-0.0805-0.24099-0.25668-0.34113-0.53963-0.39414z" stroke-width=".16875"/>
    </g>
    <g transform="matrix(.58228 0 0 .58228 443.96 148.42)" enable-background="new" fill="#fff" fill-rule="evenodd" stroke="#000">
     <path transform="matrix(2.6239 -.26731 -.84838 -2.2895 348.44 2176.2)" d="m232.32 826.47c0.33147-0.0966 0.78075-0.51486 0.88924-0.30801l0.87985 1.6775c0.10852 0.20692-0.94948 0.39961-1.2809 0.49614-0.33148 0.0966-1.1924 0.29361-1.0866 0.0502 0.10634-0.24465-0.0767-0.79973-0.0401-0.97472 0.0691-0.33093 7e-3 -0.1263 0.0705-0.47308 0.0457-0.24642 0.23695-0.37161 0.56844-0.46818z" stroke-width=".053546"/>
     <path transform="matrix(2.6239 -.26731 -.84838 -2.2895 348.44 2176.2)" d="m231.81 825.36c0.27913-0.0586 0.68834-0.35747 0.81909-0.11659l1.3527 2.4924c-0.46485 0.11698-2.0248 0.476-2.2354 0.58957l-0.6385-2.7505c0.30319-0.14506 0.30324-0.1562 0.70225-0.21446z" stroke-width=".17984"/>
    </g>
    <g transform="matrix(.58228 0 0 .58228 443.96 148.42)" enable-background="new" fill="#fea" fill-rule="evenodd" stroke="#000">
     <path transform="matrix(3.637 -.97936 -1.4593 -3.8296 619.45 3615.7)" d="m235.26 825.19c0.68013 0.65179 0.71287 0.36819 1.271 1.0573 0.11425 0.18427-0.34231 0.23541-0.53735 0.46261-0.19504 0.22729-0.96963 0.58671-0.96128 0.29803 8e-3 -0.29021-0.0303-0.79497-0.0505-0.98717-0.0382-0.36347-0.0274-0.13118-0.0732-0.50858-0.29333-0.46071 0.19162 0.11011 0.35135-0.32223z" stroke-width=".047054"/>
     <path transform="matrix(3.637 -.97936 -1.4593 -3.8296 619.45 3615.7)" d="m235.23 825.25c-0.25204 0.0684-0.74247-3e-5 -0.69253 0.15437l0.49875 1.5414c0.0492 0.15456 0.29117-0.23898 0.54321-0.30742 0.25206-0.0684 1.0229-0.35132 0.91038-0.48185l-0.72619-0.84245c-0.11243-0.13052-0.28149-0.13248-0.53354-0.064z" stroke-width=".13448"/>
    </g>
    <g transform="matrix(.58228 0 0 .58228 443.96 148.42)" enable-background="new" fill="#fff" fill-rule="evenodd" stroke="#000">
     <path transform="matrix(2.7543 -.74166 -1.1051 -2.9001 506.17 2789.5)" d="m227.6 826.58c0.31748-0.0966 0.76236-0.53634 0.84462-0.30801l0.6353 1.7635c0.0823 0.22842-0.4791 0.17305-0.79657 0.26962-0.31749 0.0966-1.4298 0.41079-1.3593 0.1674 0.0709-0.24465 0.16244-0.77629 0.17363-0.95128 0.0212-0.33093-0.0117-0.1263 2e-3 -0.47308 0.01-0.24642 0.18312-0.37161 0.50062-0.46818z" stroke-width=".053546"/>
     <path transform="matrix(2.7543 -.74166 -1.1051 -2.9001 506.17 2789.5)" d="m227.93 825.52c0.24765-0.0458 0.67431-0.32233 0.71001-0.0789l0.36921 2.5186c-0.41816 0.095-1.8244 0.24748-2.032 0.3502l0.4046-2.5807c0.29331-0.12967 0.20186-0.16902 0.54816-0.20923z" stroke-width=".16349"/>
    </g>
    <g transform="matrix(.58228 0 0 .58228 443.96 148.42)" enable-background="new" fill="#fea" fill-rule="evenodd" stroke="#000">
     <path transform="matrix(-3.1549,-1.6852,2.6609,-2.8112,-1210.6,2940.2)" d="m235.26 825.19c0.68013 0.65179 0.71287 0.36819 1.271 1.0573 0.11425 0.18427-0.34231 0.23541-0.53735 0.46261-0.19504 0.22729-0.96963 0.58671-0.96128 0.29803 8e-3 -0.29021-0.0303-0.79497-0.0505-0.98717-0.0382-0.36347-0.0274-0.13118-0.0732-0.50858-0.29333-0.46071 0.19162 0.11011 0.35135-0.32223z" stroke-width=".047054"/>
     <path transform="matrix(-3.1549,-1.6852,2.6609,-2.8112,-1210.6,2940.2)" d="m235.23 825.25c-0.25204 0.0684-0.74247-3e-5 -0.69253 0.15437l0.49875 1.5414c0.0492 0.15456 0.29117-0.23898 0.54321-0.30742 0.25206-0.0684 1.0229-0.35132 0.91038-0.48185l-0.72619-0.84245c-0.11243-0.13052-0.28149-0.13248-0.53354-0.064z" stroke-width=".13448"/>
    </g>
    <path d="m602.51 277.5c-0.64296 0.0215-1.287 0.0408-1.925 0.12739-0.32213 0.0776-0.64668 0.21708-0.84099 0.49134 0.20489 0.0308 0.40186 0.15832 0.48589 0.34569-0.43233-0.23296-0.91244-0.37196-1.3269-0.63684 0.21379 0.34913-0.23584 0.75021-0.59804 0.67323-1.0056 0.10764-2.0162 0.16736-3.0276 0.18197-0.69219 0.0682-1.3856 0.1592-2.0558 0.34571-0.68571 0.0882-1.2682-0.35998-1.894-0.55306-0.46292-0.19035-0.97077-0.3843-1.4806-0.26977-0.63152 0.0891-1.2402 0.29009-1.8771 0.34977-0.61756 0.0478-1.2384 0.0838-1.8568 0.0274-1.5786-0.0969-3.1601-0.14121-4.74-0.2151-0.67783-0.0385-1.3555-0.0673-2.0313 0.0152-0.64142 0.0633-1.2799 0.15729-1.9068 0.30617-0.67634 0.15104-1.3498 0.31664-2.0055 0.53953-0.57937 0.17591-1.1587 0.35182-1.7381 0.52768 0.11171-0.11465 0.21925-0.27478 0.14953-0.43671-0.278 0.49283-0.91945 0.78217-1.4866 0.65646-0.54104-0.24114-0.71724-0.88659-1.242-1.1477-0.51561 0.0647-0.73844 0.66077-0.63614 1.1058 0.14037 0.58764 0.75757 0.94516 1.3463 1.005 0.35013 0.0367 0.6592-0.16159 0.93444-0.34571-0.0742 0.25865-0.26771 0.45843-0.35508 0.70964 0.77015 0.0831 1.5283 0.24618 2.2987 0.32752 0.59674 0.0867 1.181 0.29027 1.7913 0.25475 0.58627-9e-3 1.098-0.35967 1.6811-0.3959 0.57438-0.0707 1.1644-0.19395 1.7363-0.0354 0.63284 0.13625 1.2634 0.28195 1.8931 0.43143 0.59551 0.0442 1.1959 0.0238 1.7755-0.12735 0.93641-0.17878 1.8709-0.36684 2.8033-0.56412 0.73511-0.39426 1.4702-0.78852 2.2053-1.1827 0.57829-0.21394 1.2497-0.46321 1.8501-0.18204 0.58293 0.17504 1.1018 0.51097 1.6772 0.6942 0.61763 0.20048 1.2307-0.0542 1.7978-0.27867 0.60346-0.26086 1.2604-0.33062 1.9075-0.41553 0.80118-0.10719 1.6081-0.16145 2.4109-0.25467 0.53612-0.0925 1.0768-0.31146 1.6259-0.21836-0.42926 0.15146-0.8708 0.40428-1.0466 0.83696 0.52326-0.11685 1.0609-8e-3 1.5886-0.0548 0.54699-0.10564 1.1161-0.16939 1.6259-0.40031 0.21106-0.0794 0.35885-0.38461 0.59805-0.34577 0.13427 0.17923-0.0644 0.42704-0.0187 0.6369 0.0232 0.18237-6e-3 0.38064 0.0934 0.54588-0.17332-0.60505 0.0528-1.2839 0.54961-1.6815 0.28084-0.29428 0.78432-0.6093 0.72123-1.0479-0.20225-0.46438-0.84378-0.33685-1.265-0.35428l-0.10919 6e-3 -0.0835 6e-3z" enable-background="new" fill="#ff5a5a" fill-rule="evenodd"/>
   </g>
  </g>
 </g>
</svg>
